<svg xmlns="http://www.w3.org/2000/svg" viewBox="0 0 69.23 25.82"><defs><style>.cls-1{fill:red;}.cls-2{fill:#fff;}</style></defs><title>Asset 1</title><g id="Layer_2" data-name="Layer 2"><g id="Layer_1-2" data-name="Layer 1"><path class="cls-1" d="M7.09,20.82c.42,0,2.06-.05,3.64-.11A1.74,1.74,0,0,0,12.49,19V14.64a1.48,1.48,0,0,1-.41-.12h0a2.73,2.73,0,0,0-.15.32,1.26,1.26,0,0,1-.91.72l-.14,0,0-.14a1.31,1.31,0,0,1,.41-1.09l.26-.24h0a1.31,1.31,0,0,1-.24-.34L7.13,15.13a1.73,1.73,0,0,0-1.06,2.19C6.5,18.84,7,20.42,7.09,20.82Z"/><path class="cls-1" d="M12.91,9.47l.09.1a1.28,1.28,0,0,1,.32,1.12,1.81,1.81,0,0,0-.07.34v0a1.4,1.4,0,0,1,.39.14l2.58-3.55a1.72,1.72,0,0,0-.43-2.39c-1.24-1-2.55-2-2.88-2.24-.34.25-1.64,1.26-2.89,2.24A1.71,1.71,0,0,0,9.6,7.64l2.57,3.55a1.47,1.47,0,0,1,.4-.14v0c0-.14-.05-.26-.07-.34a1.29,1.29,0,0,1,.31-1.12Z"/><path class="cls-1" d="M3.52,9.8c.14.4.69,1.95,1.24,3.43a1.72,1.72,0,0,0,2.15,1.15L11.08,13a1.19,1.19,0,0,1,0-.42h0l-.35,0a1.33,1.33,0,0,1-1-.64l-.06-.12.12-.06a1.25,1.25,0,0,1,1.16,0l.31.17h0a1.59,1.59,0,0,1,.25-.33L9,8.09a1.73,1.73,0,0,0-2.42-.34Z"/><path class="cls-1" d="M15,20.73c1.58.06,3.23.1,3.65.11.12-.4.59-2,1-3.5a1.72,1.72,0,0,0-1.07-2.19L14.45,13.8a1.56,1.56,0,0,1-.23.34h0l.26.24a1.29,1.29,0,0,1,.4,1.09l0,.14-.14,0a1.25,1.25,0,0,1-.9-.72l-.15-.32h0a1.42,1.42,0,0,1-.4.12V19A1.72,1.72,0,0,0,15,20.73Z"/><path class="cls-1" d="M22.27,9.83c-.35-.24-1.7-1.17-3-2a1.72,1.72,0,0,0-2.41.34l-2.58,3.54a1.64,1.64,0,0,1,.26.33h0l.31-.17A1.29,1.29,0,0,1,16,11.77l.12.06-.06.12a1.3,1.3,0,0,1-1,.64l-.35,0h0a1.48,1.48,0,0,1,0,.42l4.17,1.35A1.73,1.73,0,0,0,21,13.27C21.58,11.78,22.13,10.23,22.27,9.83Z"/><circle class="cls-1" cx="12.91" cy="12.91" r="1.26"/><path class="cls-1" d="M12.91,25.82a12.91,12.91,0,0,1-9.13-22A12.91,12.91,0,0,1,22,22,12.86,12.86,0,0,1,12.91,25.82Zm0-23.89a11,11,0,1,0,11,11A11,11,0,0,0,12.91,1.93Z"/><path class="cls-2" d="M29.18,12l.73-.86a2.55,2.55,0,0,0,1.66.67c.5,0,.8-.2.8-.52v0c0-.31-.19-.46-1.12-.7-1.12-.29-1.84-.6-1.84-1.7v0a1.73,1.73,0,0,1,1.94-1.67,3.26,3.26,0,0,1,2.07.7l-.64.92a2.61,2.61,0,0,0-1.44-.54c-.47,0-.72.21-.72.48v0c0,.36.24.48,1.2.73,1.13.29,1.76.7,1.76,1.66v0c0,1.1-.84,1.72-2,1.72A3.53,3.53,0,0,1,29.18,12Z"/><path class="cls-2" d="M34.65,7.26h4.19V8.34h-3V9.47h2.62v1.09H35.86v1.17h3v1.08H34.65Z"/><path class="cls-2" d="M40,7.26h2.27a1.9,1.9,0,0,1,2.13,1.92h0a2,2,0,0,1-2.25,2h-.93v1.66H40Zm2.19,2.8a.86.86,0,0,0,1-.84v0c0-.55-.38-.84-1-.84h-1v1.7Z"/><path class="cls-2" d="M45.28,7.26H46.5v2.2h2.26V7.26H50v5.55H48.76V10.58H46.5v2.23H45.28Z"/><path class="cls-2" d="M51.07,10.05v0a2.88,2.88,0,0,1,3-2.87A2.85,2.85,0,0,1,57,10h0a2.88,2.88,0,0,1-3,2.88A2.85,2.85,0,0,1,51.07,10.05Zm4.63,0v0A1.69,1.69,0,0,0,54,8.29,1.66,1.66,0,0,0,52.35,10h0A1.69,1.69,0,0,0,54,11.78,1.67,1.67,0,0,0,55.7,10.05Z"/><path class="cls-2" d="M58.07,7.26h2.54a2.21,2.21,0,0,1,1.62.56,1.75,1.75,0,0,1,.47,1.27v0a1.72,1.72,0,0,1-1.19,1.72l1.36,2H61.44L60.25,11h-1v1.77H58.07ZM60.53,10c.59,0,.94-.32.94-.79v0c0-.52-.37-.79-1-.79H59.29V10Z"/><path class="cls-2" d="M65.72,7.22h1.12l2.39,5.59H68l-.51-1.24H65.09l-.51,1.24H63.33ZM67,10.49l-.74-1.8-.73,1.8Z"/><path class="cls-2" d="M29.18,14.87h1.39a1.86,1.86,0,0,1,2,1.85h0a1.86,1.86,0,0,1-2,1.86H29.18Zm.66.6V18h.73a1.22,1.22,0,0,0,1.29-1.26h0a1.22,1.22,0,0,0-1.29-1.26Z"/><path class="cls-2" d="M33.34,14.87h2.75v.59H34v1h1.87V17H34v1h2.13v.58H33.34Z"/><path class="cls-2" d="M36.64,18.05l.4-.47a1.71,1.71,0,0,0,1.17.49c.41,0,.66-.2.66-.47h0c0-.27-.15-.41-.84-.57s-1.24-.43-1.24-1.11h0a1.14,1.14,0,0,1,1.27-1.08,2,2,0,0,1,1.35.47l-.35.49a1.67,1.67,0,0,0-1-.38c-.38,0-.6.19-.6.44h0c0,.29.17.41.88.58s1.19.48,1.19,1.09h0c0,.7-.54,1.11-1.32,1.11A2.3,2.3,0,0,1,36.64,18.05Z"/><path class="cls-2" d="M40.33,14.87H41v3.72h-.65Z"/><path class="cls-2" d="M41.81,16.74h0a1.9,1.9,0,0,1,1.92-1.92,2,2,0,0,1,1.43.5l-.41.5a1.45,1.45,0,0,0-1-.4,1.26,1.26,0,0,0-1.2,1.31h0a1.24,1.24,0,0,0,1.26,1.33,1.53,1.53,0,0,0,.9-.28v-.7h-.95v-.57h1.58v1.57a2.37,2.37,0,0,1-1.55.58A1.85,1.85,0,0,1,41.81,16.74Z"/><path class="cls-2" d="M46.14,14.87h.61l2,2.57V14.87h.64v3.72h-.55l-2-2.64v2.64h-.64Z"/></g></g></svg>